# xmcd
#
# Track frame offsets: 
#        150
#        11160
#        25617
#        38332
#        51655
#        60894
#        71993
#        87155
#        103033
#        115576
#        126396
#        137020
#        146541
#        156322
#        164478
#        176663
#        186663
#
# Disc length: 2645 seconds
#
# Revision: 0
# Processed by: cddbd v1.5.2PL0 Copyright (c) Steve Scherf et al.
# Submitted via: ExactAudioCopyFreeDBPlugin 1.0
#
DISCID=f10a5311
DTITLE=Philomena Begley - From Then Till Now - CD-1
DYEAR=2012
DGENRE=Country
TTITLE0=Love A Ramblin' Man
TTITLE1=England's Motorway (My Little Son)
TTITLE2=A Village In County Tyrone
TTITLE3=Old Ardboe
TTITLE4=Truck Drivin' Woman
TTITLE5=Mama's and Daddy's Little Girl
TTITLE6=Here Today Gone Tomorrow
TTITLE7=My Elusive Dreams (With Ray Lynam)
TTITLE8=Jeannie's Afraid Of The Dark (With Ray Lynam)
TTITLE9=You And Me, Her And Him (With Ray Lynam)
TTITLE10=False Eyelashes
TTITLE11=I Love You Honey
TTITLE12=Crying Steel Guitar
TTITLE13=Lucky Old Me
TTITLE14=Honkytonkitis
TTITLE15=You Never Were Mine
TTITLE16=Where Do Babies Go
EXTD=
EXTT0=
EXTT1=
EXTT2=
EXTT3=
EXTT4=
EXTT5=
EXTT6=
EXTT7=
EXTT8=
EXTT9=
EXTT10=
EXTT11=
EXTT12=
EXTT13=
EXTT14=
EXTT15=
EXTT16=
PLAYORDER=
